<svg xmlns="http://www.w3.org/2000/svg" width="353" height="349" viewBox="0 0 353 349">
  <defs>
    <style>
      .cls-1 {
        fill: #2875d5;
        fill-rule: evenodd;
      }
    </style>
  </defs>
  <path id="flowerside.svg" class="cls-1" d="M98.13,1118.73h26.977l-21.1-16.04-5.879,16.04h0Zm104.53-24.07-25.6,25.6,49.668,107.18V1064.19l-18.038-6.61-5.322,35.68a2.552,2.552,0,0,1-.2.67l-0.007.01-0.046.1-0.013.02,0,0.01-0.016.03h0l-0.014.03-0.012.02-0.006.01-0.019.03h0l-0.006.01-0.02.03-0.011.02-0.016.02,0,0.01-0.021.03h-0.005a2.348,2.348,0,0,1-.284.35h0ZM37.433,807.75H81.979v0.009a2.489,2.489,0,0,1,2.283,1.5L121.293,895.4,91.708,924.988l-53.6-115.672-0.672-1.566h0ZM-87.99,938.462l31.5-31.5,0.006,0.006a2.494,2.494,0,0,1,2.676-.553l87.1,34.729v41.839L-86.407,939.1l-1.583-.633h0Zm3.74,181.118v-44.55h0.009a2.482,2.482,0,0,1,1.5-2.28L3.4,1035.72l29.584,29.58-115.671,53.61-1.567.67h0ZM46.462,1245l-31.5-31.5h0.006a2.5,2.5,0,0,1-.553-2.68l34.728-87.1H90.983l-43.889,119.7L46.462,1245h0Zm181.115-3.74H183.031v-0.01a2.485,2.485,0,0,1-2.283-1.5l-37.031-86.14,29.585-29.59,53.6,115.67,0.672,1.57h0ZM353,1110.55l-31.5,31.5,0-.01a2.483,2.483,0,0,1-2.677.55l-87.1-34.72v-41.84l119.7,43.89,1.583,0.63h0Zm-3.74-181.117v44.546h-0.009a2.491,2.491,0,0,1-1.5,2.283l-86.144,37.028-29.585-29.582,115.672-53.6,1.567-.672h0ZM218.549,804.01l31.5,31.5-0.007.007a2.488,2.488,0,0,1,.554,2.676l-34.728,87.1H174.027l43.889-119.7,0.633-1.583h0Zm-156.2,290.65a1.944,1.944,0,0,0,.345.28l0.007,0.01,0.029,0.02h0.005l0.024,0.02,0.017,0.01,0.032,0.02,0.01,0.01h0l0.03,0.01,0.012,0.01,0.018,0.01,0.024,0.02h0.007l0.031,0.02h0.006l0.025,0.01,0.095,0.05h0.013a2.227,2.227,0,0,0,.671.2l35.676,5.33-6.614,18.04H-70.432l107.179-49.67,25.6,25.6h0ZM38.285,984.816l18.038,6.614,5.322-35.676a2.478,2.478,0,0,1,.2-0.671l0.006-.014,0.047-.095,0.012-.025,0-.006,0.017-.031,0-.006,0.014-.025,0.011-.018,0.007-.012,0.018-.03h0l0.006-.01,0.021-.032,0.01-.017,0.016-.024,0-.006,0.02-.028,0.005-.007a2.46,2.46,0,0,1,.285-0.345l25.6-25.6L38.285,821.568V984.816h0Zm-115.9-37.184L37.818,1063.07l17.437-8.08-21.468-29a2.48,2.48,0,0,1-.468-1.19l0-.01-0.009-.11,0-.02v-0.01l0-.04h0v-0.1H33.288V988.3l-110.9-40.666h0ZM41.572,1066.82l19.073,19.07-3.582-26.25-15.491,7.18h0Zm12.746-70.811-16.033,21.1V990.13l16.033,5.879h0Zm39.626-66.191,8.08,17.436,29-21.468a2.5,2.5,0,0,1,1.186-.468h0.017l0.105-.01,0.025,0h0.01l0.035,0h0.1v-0.012h36.207l40.666-110.9L93.944,929.818h0Zm3.424,19.246-26.251,3.581,19.073-19.073,7.179,15.492h0Zm74.827-18.779-6.614,18.038,35.677,5.323a2.487,2.487,0,0,1,.671.2l0.013,0.007,0.095,0.047,0.025,0.012,0.006,0,0.031,0.017,0.007,0,0.024,0.014,0.019,0.011,0.011,0.007,0.031,0.018h0l0.01,0.006,0.032,0.021,0.017,0.01,0.025,0.016,0,0,0.029,0.02,0.006,0a2.484,2.484,0,0,1,.346.285l25.6,25.6,107.179-49.668H172.194ZM161,946.318l-21.1-16.033H166.88L161,946.318h0Zm66.192,39.626L342.627,1101.38l-110.9-40.67v-36.2H231.71v-0.11h0l0-.03v-0.02l0-.02-0.009-.11,0-.01a2.478,2.478,0,0,0-.468-1.19l-21.468-29,17.437-8.081h0Zm-19.246,3.424-3.582-26.252,19.073,19.073-15.491,7.179h0Zm18.778,69.512L210.692,1053l16.033-21.1v26.98h0Zm-55.658,60.31L55.632,1234.63,96.3,1123.72h36.207v-0.01h0.151l0.025-.01,0.1-.01H132.8a2.5,2.5,0,0,0,1.186-.47l29-21.46,8.081,17.43h0Zm-3.424-19.24,26.251-3.58-19.073,19.07Z" transform="translate(0 -804)"/>
</svg>
